<svg width="126" height="41" viewBox="0 0 126 41" fill="none" xmlns="http://www.w3.org/2000/svg">
<rect x="0.642395" y="0.5" width="125.11" height="39.9998" rx="4" fill="black"/>
<path d="M28.9509 21.263C28.9628 20.3431 29.2071 19.4411 29.6612 18.641C30.1153 17.8409 30.7644 17.1687 31.5482 16.6869C31.0503 15.9758 30.3935 15.3907 29.6299 14.9778C28.8663 14.565 28.017 14.336 27.1494 14.3088C25.2986 14.1146 23.5044 15.4163 22.5613 15.4163C21.6 15.4163 20.1479 14.3281 18.5843 14.3603C17.5729 14.393 16.5872 14.6871 15.7233 15.2139C14.8594 15.7408 14.1466 16.4825 13.6546 17.3667C11.5231 21.0571 13.113 26.4808 15.1548 29.4638C16.1764 30.9245 17.3703 32.5561 18.9325 32.4983C20.4612 32.4349 21.0321 31.5235 22.8774 31.5235C24.7056 31.5235 25.2413 32.4983 26.8352 32.4615C28.4756 32.4349 29.5091 30.9943 30.4948 29.5198C31.2288 28.4789 31.7936 27.3286 32.1683 26.1114C31.2153 25.7083 30.402 25.0336 29.8299 24.1714C29.2577 23.3093 28.952 22.2977 28.9509 21.263Z" fill="white"/>
<path d="M25.9405 12.3471C26.8349 11.2734 27.2755 9.89335 27.1688 8.5C25.8024 8.64352 24.5402 9.2966 23.6337 10.3291C23.1905 10.8335 22.851 11.4203 22.6347 12.056C22.4184 12.6917 22.3295 13.3637 22.3732 14.0338C23.0566 14.0408 23.7328 13.8927 24.3507 13.6005C24.9686 13.3084 25.5122 12.8798 25.9405 12.3471Z" fill="white"/>
<path d="M47.8883 26.4153H43.2481L42.1337 29.6305H40.1683L44.5635 17.7352H46.6055L51.0007 29.6305H49.0017L47.8883 26.4153ZM43.7287 24.9317H47.4068L45.5936 19.7137H45.5429L43.7287 24.9317Z" fill="white"/>
<path d="M60.4921 25.2942C60.4921 27.9893 59.0159 29.7208 56.7881 29.7208C56.2238 29.7497 55.6625 29.6226 55.1687 29.3543C54.6748 29.086 54.2682 28.6871 53.9955 28.2035H53.9534V32.4991H52.1315V20.9575H53.895V22.3999H53.9285C54.2137 21.9186 54.6272 21.5219 55.1248 21.2519C55.6225 20.9819 56.1857 20.8488 56.7546 20.8667C59.0072 20.8667 60.4921 22.6067 60.4921 25.2942ZM58.6195 25.2942C58.6195 23.5384 57.6909 22.384 56.274 22.384C54.882 22.384 53.9457 23.5627 53.9457 25.2942C53.9457 27.0417 54.882 28.2119 56.274 28.2119C57.6909 28.2119 58.6195 27.066 58.6195 25.2942Z" fill="white"/>
<path d="M70.2618 25.2942C70.2618 27.9893 68.7856 29.7208 66.5578 29.7208C65.9935 29.7497 65.4323 29.6226 64.9384 29.3543C64.4445 29.0859 64.0379 28.6871 63.7652 28.2035H63.7231V32.4991H61.9012V20.9574H63.6647V22.3999H63.6982C63.9834 21.9186 64.3968 21.5219 64.8945 21.2519C65.3921 20.9819 65.9554 20.8488 66.5243 20.8667C68.777 20.8667 70.2618 22.6067 70.2618 25.2942ZM68.3892 25.2942C68.3892 23.5384 67.4606 22.384 66.0437 22.384C64.6517 22.384 63.7154 23.5627 63.7154 25.2942C63.7154 27.0417 64.6517 28.2119 66.0437 28.2119C67.4606 28.2119 68.3892 27.066 68.3892 25.2942H68.3892Z" fill="white"/>
<path d="M76.7182 26.3164C76.8532 27.496 78.026 28.2705 79.6286 28.2705C81.1642 28.2705 82.2689 27.4959 82.2689 26.4323C82.2689 25.509 81.6026 24.9562 80.0249 24.5773L78.4472 24.2059C76.2118 23.6783 75.174 22.6568 75.174 20.9992C75.174 18.9468 77.0045 17.537 79.6037 17.537C82.176 17.537 83.9395 18.9468 83.9989 20.9992H82.1598C82.0497 19.8121 81.0454 19.0955 79.5778 19.0955C78.1102 19.0955 77.1059 19.8205 77.1059 20.8757C77.1059 21.7167 77.7474 22.2115 79.3164 22.5904L80.6577 22.9122C83.1554 23.4893 84.1932 24.4697 84.1932 26.2096C84.1932 28.4351 82.379 29.8289 79.4935 29.8289C76.7938 29.8289 74.971 28.4678 74.8533 26.3163L76.7182 26.3164Z" fill="white"/>
<path d="M88.1248 18.9052V20.9576H89.8126V22.3673H88.1248V27.1485C88.1248 27.8912 88.4627 28.2373 89.2047 28.2373C89.4051 28.2339 89.6051 28.2202 89.804 28.1962V29.5975C89.4704 29.6584 89.1314 29.686 88.7921 29.6798C86.9951 29.6798 86.2943 29.0203 86.2943 27.3383V22.3673H85.0038V20.9576H86.2943V18.9052H88.1248Z" fill="white"/>
<path d="M90.7906 25.295C90.7906 22.5663 92.4354 20.8516 95.0001 20.8516C97.5735 20.8516 99.2105 22.5662 99.2105 25.295C99.2105 28.0312 97.5821 29.7384 95.0001 29.7384C92.4191 29.7384 90.7906 28.0312 90.7906 25.295ZM97.3542 25.295C97.3542 23.4231 96.4763 22.3184 95.0001 22.3184C93.5239 22.3184 92.6469 23.4316 92.6469 25.295C92.6469 27.1743 93.5239 28.2707 95.0001 28.2707C96.4763 28.2707 97.3542 27.1743 97.3542 25.295H97.3542Z" fill="white"/>
<path d="M100.712 20.9577H102.45V22.4339H102.492C102.609 21.9728 102.886 21.5654 103.274 21.2801C103.663 20.9947 104.141 20.8489 104.627 20.867C104.837 20.8663 105.046 20.8886 105.251 20.9334V22.5985C104.986 22.5194 104.709 22.483 104.432 22.4909C104.168 22.4805 103.904 22.5261 103.659 22.6246C103.414 22.7232 103.194 22.8723 103.013 23.0619C102.833 23.2515 102.697 23.4769 102.614 23.7228C102.531 23.9687 102.504 24.2291 102.534 24.4863V29.6304H100.712L100.712 20.9577Z" fill="white"/>
<path d="M113.651 27.0836C113.406 28.658 111.837 29.7384 109.829 29.7384C107.247 29.7384 105.645 28.048 105.645 25.3361C105.645 22.6158 107.256 20.8516 109.753 20.8516C112.208 20.8516 113.753 22.4998 113.753 25.1294V25.7393H107.484V25.8469C107.455 26.1661 107.496 26.4876 107.604 26.7902C107.712 27.0927 107.884 27.3693 108.11 27.6017C108.336 27.834 108.61 28.0167 108.914 28.1377C109.217 28.2587 109.544 28.3152 109.871 28.3034C110.302 28.3428 110.734 28.2454 111.103 28.0256C111.473 27.8058 111.759 27.4754 111.921 27.0836L113.651 27.0836ZM107.492 24.4952H111.93C111.946 24.2082 111.902 23.921 111.799 23.6516C111.696 23.3822 111.538 23.1365 111.333 22.9298C111.129 22.7231 110.883 22.56 110.611 22.4506C110.339 22.3412 110.047 22.2879 109.753 22.294C109.456 22.2923 109.162 22.348 108.887 22.4579C108.613 22.5678 108.363 22.7298 108.153 22.9344C107.943 23.1391 107.777 23.3823 107.663 23.6502C107.55 23.9181 107.492 24.2053 107.492 24.4952V24.4952Z" fill="white"/>
<path d="M43.5004 8.78218C43.8823 8.7554 44.2656 8.81178 44.6225 8.94726C44.9795 9.08274 45.3012 9.29394 45.5645 9.56563C45.8278 9.83732 46.0261 10.1627 46.1452 10.5184C46.2642 10.874 46.3009 11.251 46.2528 11.6222C46.2528 13.4482 45.2428 14.4979 43.5004 14.4979H41.3875V8.78218H43.5004ZM42.296 13.6895H43.3989C43.6718 13.7055 43.945 13.6618 44.1984 13.5616C44.4519 13.4613 44.6793 13.3072 44.864 13.1103C45.0488 12.9133 45.1863 12.6786 45.2666 12.4232C45.3469 12.1679 45.3678 11.8982 45.328 11.6339C45.3649 11.3706 45.3418 11.1026 45.2604 10.8491C45.1789 10.5956 45.041 10.3628 44.8566 10.1674C44.6723 9.9721 44.446 9.81902 44.194 9.71917C43.9419 9.61932 43.6704 9.57518 43.3989 9.5899H42.296V13.6895Z" fill="white"/>
<path d="M47.2786 12.3387C47.2509 12.0552 47.2841 11.7692 47.3761 11.499C47.4681 11.2288 47.6168 10.9804 47.8128 10.7697C48.0089 10.559 48.2478 10.3906 48.5143 10.2754C48.7808 10.1602 49.069 10.1006 49.3604 10.1006C49.6518 10.1006 49.94 10.1602 50.2065 10.2754C50.473 10.3906 50.712 10.559 50.908 10.7697C51.104 10.9804 51.2527 11.2288 51.3447 11.499C51.4367 11.7692 51.4699 12.0552 51.4422 12.3387C51.4704 12.6224 51.4376 12.9088 51.3459 13.1795C51.2541 13.4501 51.1055 13.699 50.9094 13.9101C50.7133 14.1213 50.4743 14.29 50.2075 14.4054C49.9407 14.5209 49.6522 14.5805 49.3604 14.5805C49.0686 14.5805 48.7801 14.5209 48.5133 14.4054C48.2466 14.29 48.0075 14.1213 47.8114 13.9101C47.6153 13.699 47.4667 13.4501 47.3749 13.1795C47.2832 12.9088 47.2504 12.6224 47.2786 12.3387ZM50.5461 12.3387C50.5461 11.4037 50.1162 10.8569 49.3618 10.8569C48.6046 10.8569 48.1786 11.4037 48.1786 12.3387C48.1786 13.2812 48.6046 13.8237 49.3618 13.8237C50.1162 13.8237 50.5461 13.2774 50.5461 12.3387H50.5461Z" fill="white"/>
<path d="M56.976 14.4975H56.0722L55.1599 11.3207H55.0909L54.1824 14.4975H53.2873L52.0705 10.1841H52.9541L53.7449 13.4755H53.81L54.7176 10.1841H55.5533L56.4609 13.4755H56.5298L57.3168 10.1841H58.188L56.976 14.4975Z" fill="white"/>
<path d="M59.2123 10.1838H60.0509V10.869H60.116C60.2265 10.6229 60.4127 10.4166 60.6489 10.2788C60.885 10.1411 61.1592 10.0787 61.4333 10.1005C61.6481 10.0847 61.8638 10.1164 62.0644 10.1931C62.2649 10.2698 62.4453 10.3897 62.592 10.5437C62.7388 10.6978 62.8481 10.8822 62.9121 11.0831C62.976 11.2841 62.9928 11.4966 62.9613 11.7048V14.4971H62.0901V11.9186C62.0901 11.2254 61.7818 10.8807 61.1375 10.8807C60.9917 10.874 60.8461 10.8983 60.7108 10.9518C60.5754 11.0053 60.4535 11.0867 60.3534 11.1905C60.2533 11.2943 60.1773 11.4181 60.1307 11.5533C60.0841 11.6885 60.068 11.8319 60.0835 11.9738V14.4972H59.2123L59.2123 10.1838Z" fill="white"/>
<path d="M64.3488 8.50031H65.2199V14.4975H64.3488V8.50031Z" fill="white"/>
<path d="M66.432 12.3388C66.4043 12.0553 66.4375 11.7693 66.5295 11.4991C66.6215 11.2289 66.7703 10.9804 66.9663 10.7697C67.1624 10.559 67.4013 10.3906 67.6678 10.2754C67.9343 10.1602 68.2226 10.1006 68.514 10.1006C68.8054 10.1006 69.0937 10.1602 69.3602 10.2754C69.6267 10.3906 69.8656 10.559 70.0617 10.7697C70.2577 10.9804 70.4065 11.2289 70.4985 11.4991C70.5905 11.7693 70.6237 12.0553 70.596 12.3388C70.6242 12.6225 70.5914 12.9089 70.4996 13.1796C70.4079 13.4502 70.2592 13.6991 70.0631 13.9102C69.867 14.1213 69.6279 14.29 69.3611 14.4055C69.0943 14.521 68.8058 14.5806 68.514 14.5806C68.2222 14.5806 67.9337 14.521 67.6669 14.4055C67.4001 14.29 67.161 14.1213 66.9649 13.9102C66.7688 13.6991 66.6201 13.4502 66.5284 13.1796C66.4366 12.9089 66.4038 12.6225 66.432 12.3388ZM69.6994 12.3388C69.6994 11.4038 69.2696 10.857 68.5152 10.857C67.7579 10.857 67.3319 11.4038 67.3319 12.3388C67.3319 13.2813 67.758 13.8238 68.5152 13.8238C69.2696 13.8238 69.6994 13.2775 69.6994 12.3388H69.6994Z" fill="white"/>
<path d="M71.5132 13.2775C71.5132 12.501 72.1049 12.0534 73.1551 11.9898L74.3508 11.9224V11.5501C74.3508 11.0946 74.0426 10.8373 73.4471 10.8373C72.9608 10.8373 72.6238 11.0118 72.5271 11.3167H71.6837C71.7727 10.5759 72.4859 10.1006 73.4873 10.1006C74.594 10.1006 75.2182 10.639 75.2182 11.5501V14.4973H74.3796V13.8911H74.3106C74.1707 14.1086 73.9743 14.2858 73.7413 14.4048C73.5084 14.5238 73.2473 14.5802 72.9847 14.5684C72.7994 14.5872 72.6121 14.5679 72.4349 14.5117C72.2577 14.4554 72.0945 14.3635 71.9559 14.2419C71.8172 14.1203 71.7062 13.9716 71.63 13.8055C71.5537 13.6394 71.514 13.4595 71.5132 13.2775ZM74.3508 12.9089V12.5483L73.2729 12.6156C72.6649 12.6554 72.3892 12.8574 72.3892 13.2377C72.3892 13.6259 72.7339 13.8518 73.2078 13.8518C73.3466 13.8656 73.4869 13.8519 73.6202 13.8115C73.7536 13.7712 73.8772 13.7051 73.9839 13.6171C74.0905 13.5292 74.178 13.4211 74.241 13.2994C74.3041 13.1778 74.3414 13.0449 74.3508 12.9089Z" fill="white"/>
<path d="M76.3633 12.339C76.3633 10.976 77.0803 10.1126 78.1956 10.1126C78.4715 10.1002 78.7453 10.1647 78.985 10.2987C79.2248 10.4327 79.4205 10.6306 79.5493 10.8693H79.6144V8.50031H80.4856V14.4975H79.6508V13.816H79.5819C79.4431 14.0531 79.2405 14.2486 78.9962 14.3812C78.7518 14.5139 78.475 14.5787 78.1957 14.5686C77.0727 14.5687 76.3633 13.7052 76.3633 12.339ZM77.2632 12.339C77.2632 13.2539 77.7046 13.8044 78.4427 13.8044C79.1769 13.8044 79.6307 13.2459 79.6307 12.3427C79.6307 11.4437 79.1722 10.8773 78.4427 10.8773C77.7093 10.8773 77.2632 11.4316 77.2632 12.339H77.2632Z" fill="white"/>
<path d="M84.0899 12.3387C84.0621 12.0552 84.0953 11.7692 84.1873 11.499C84.2793 11.2288 84.4281 10.9804 84.6241 10.7697C84.8201 10.559 85.059 10.3906 85.3255 10.2754C85.592 10.1602 85.8802 10.1006 86.1716 10.1006C86.463 10.1006 86.7512 10.1602 87.0177 10.2754C87.2842 10.3906 87.5232 10.559 87.7192 10.7697C87.9152 10.9804 88.064 11.2288 88.1559 11.499C88.2479 11.7692 88.2811 12.0552 88.2534 12.3387C88.2817 12.6224 88.2489 12.9088 88.1571 13.1795C88.0654 13.4501 87.9167 13.699 87.7206 13.9101C87.5246 14.1213 87.2855 14.29 87.0187 14.4054C86.7519 14.5209 86.4634 14.5805 86.1716 14.5805C85.8799 14.5805 85.5913 14.5209 85.3245 14.4054C85.0578 14.29 84.8187 14.1213 84.6226 13.9101C84.4266 13.699 84.2779 13.4501 84.1861 13.1795C84.0944 12.9088 84.0616 12.6224 84.0899 12.3387ZM87.3573 12.3387C87.3573 11.4037 86.9274 10.8569 86.1731 10.8569C85.4158 10.8569 84.9898 11.4037 84.9898 12.3387C84.9898 13.2812 85.4158 13.8237 86.1731 13.8237C86.9274 13.8237 87.3573 13.2774 87.3573 12.3387Z" fill="white"/>
<path d="M89.4215 10.1838H90.2601V10.869H90.3253C90.4357 10.6229 90.622 10.4166 90.8581 10.2788C91.0942 10.1411 91.3685 10.0787 91.6426 10.1005C91.8574 10.0847 92.073 10.1164 92.2736 10.1931C92.4742 10.2698 92.6545 10.3897 92.8012 10.5437C92.948 10.6978 93.0574 10.8822 93.1213 11.0831C93.1852 11.2841 93.202 11.4966 93.1705 11.7048V14.4971H92.2993V11.9186C92.2993 11.2254 91.991 10.8807 91.3467 10.8807C91.2009 10.874 91.0553 10.8983 90.92 10.9518C90.7847 11.0053 90.6627 11.0867 90.5626 11.1905C90.4625 11.2943 90.3866 11.4181 90.34 11.5533C90.2934 11.6885 90.2773 11.8319 90.2927 11.9738V14.4972H89.4215V10.1838Z" fill="white"/>
<path d="M98.093 9.11041V10.204H99.0494V10.921H98.093V13.139C98.093 13.5908 98.2835 13.7886 98.7172 13.7886C98.8282 13.7883 98.9391 13.7817 99.0494 13.769V14.4781C98.893 14.5054 98.7344 14.52 98.5755 14.5216C97.6067 14.5216 97.2209 14.1885 97.2209 13.3569V10.921H96.5201V10.2039H97.2209V9.11041H98.093Z" fill="white"/>
<path d="M100.24 8.50031H101.104V10.8773H101.173C101.288 10.6289 101.48 10.4214 101.721 10.2832C101.961 10.1449 102.24 10.0825 102.518 10.1046C102.732 10.0933 102.946 10.1281 103.144 10.2067C103.342 10.2853 103.52 10.4057 103.666 10.5593C103.811 10.7129 103.92 10.8959 103.984 11.0952C104.049 11.2946 104.067 11.5054 104.039 11.7127V14.4975H103.167V11.9227C103.167 11.2337 102.838 10.8848 102.223 10.8848C102.073 10.8728 101.922 10.8929 101.781 10.9437C101.641 10.9945 101.513 11.0748 101.407 11.179C101.301 11.2832 101.22 11.4087 101.169 11.5467C101.118 11.6848 101.098 11.8321 101.111 11.9783V14.4975H100.24L100.24 8.50031Z" fill="white"/>
<path d="M109.118 13.3327C109 13.7269 108.743 14.0679 108.393 14.2961C108.044 14.5242 107.623 14.6249 107.205 14.5806C106.914 14.5881 106.625 14.5337 106.358 14.4211C106.091 14.3085 105.852 14.1405 105.658 13.9287C105.464 13.7168 105.32 13.4663 105.235 13.1944C105.15 12.9225 105.126 12.6358 105.166 12.3542C105.127 12.0718 105.151 11.7845 105.236 11.5118C105.321 11.2391 105.464 10.9874 105.657 10.7737C105.85 10.56 106.088 10.3893 106.355 10.2732C106.621 10.1571 106.91 10.0983 107.201 10.1007C108.43 10.1007 109.171 10.9207 109.171 12.2752V12.5722H106.053V12.6199C106.04 12.7782 106.06 12.9375 106.113 13.0877C106.166 13.2378 106.251 13.3755 106.362 13.4918C106.472 13.6082 106.607 13.7006 106.756 13.7633C106.905 13.8259 107.067 13.8574 107.229 13.8556C107.438 13.8801 107.649 13.8434 107.836 13.7503C108.023 13.6572 108.177 13.5118 108.279 13.3327L109.118 13.3327ZM106.053 11.9426H108.283C108.294 11.7979 108.274 11.6525 108.224 11.5157C108.174 11.379 108.095 11.254 107.993 11.1488C107.891 11.0436 107.767 10.9604 107.63 10.9047C107.493 10.849 107.345 10.8219 107.197 10.8252C107.046 10.8234 106.896 10.851 106.757 10.9065C106.617 10.962 106.49 11.0443 106.384 11.1484C106.277 11.2526 106.193 11.3765 106.137 11.5129C106.08 11.6493 106.052 11.7954 106.053 11.9426H106.053Z" fill="white"/>
</svg>
